<svg width="85" height="41" viewBox="0 0 85 41" fill="F1416C" xmlns="http://www.w3.org/2000/svg">
<rect width="85" height="41" rx="6"/>
<path d="M23.8486 25H21.7705L21.7842 23.9268H23.8486C24.5596 23.9268 25.152 23.7786 25.626 23.4824C26.0999 23.1816 26.4554 22.7624 26.6924 22.2246C26.9339 21.6823 27.0547 21.0488 27.0547 20.3242V19.7158C27.0547 19.1462 26.9863 18.6403 26.8496 18.1982C26.7129 17.7516 26.5124 17.3757 26.248 17.0703C25.9837 16.7604 25.6602 16.5257 25.2773 16.3662C24.8991 16.2067 24.4639 16.127 23.9717 16.127H21.7295V15.0469H23.9717C24.6234 15.0469 25.2181 15.1562 25.7559 15.375C26.2936 15.5892 26.7562 15.9014 27.1436 16.3115C27.5355 16.7171 27.8363 17.2093 28.0459 17.7881C28.2555 18.3623 28.3604 19.0094 28.3604 19.7295V20.3242C28.3604 21.0443 28.2555 21.6937 28.0459 22.2725C27.8363 22.8467 27.5332 23.3366 27.1367 23.7422C26.7448 24.1478 26.2708 24.46 25.7148 24.6787C25.1634 24.8929 24.5413 25 23.8486 25ZM22.4746 15.0469V25H21.1553V15.0469H22.4746ZM34.5127 23.7354V19.9277C34.5127 19.6361 34.4535 19.3831 34.335 19.1689C34.221 18.9502 34.0479 18.7816 33.8154 18.6631C33.583 18.5446 33.2959 18.4854 32.9541 18.4854C32.6351 18.4854 32.3548 18.54 32.1133 18.6494C31.8763 18.7588 31.6895 18.9023 31.5527 19.0801C31.4206 19.2578 31.3545 19.4492 31.3545 19.6543H30.0898C30.0898 19.39 30.1582 19.1279 30.2949 18.8682C30.4316 18.6084 30.6276 18.3737 30.8828 18.1641C31.1426 17.9499 31.4525 17.7812 31.8125 17.6582C32.1771 17.5306 32.5827 17.4668 33.0293 17.4668C33.5671 17.4668 34.041 17.5579 34.4512 17.7402C34.8659 17.9225 35.1895 18.1982 35.4219 18.5674C35.6589 18.932 35.7773 19.39 35.7773 19.9414V23.3867C35.7773 23.6328 35.7979 23.8949 35.8389 24.1729C35.8844 24.4508 35.9505 24.6901 36.0371 24.8906V25H34.7178C34.654 24.8542 34.6038 24.6605 34.5674 24.4189C34.5309 24.1729 34.5127 23.945 34.5127 23.7354ZM34.7314 20.5156L34.7451 21.4043H33.4668C33.1068 21.4043 32.7855 21.4339 32.5029 21.4932C32.2204 21.5479 31.9834 21.6322 31.792 21.7461C31.6006 21.86 31.4548 22.0036 31.3545 22.1768C31.2542 22.3454 31.2041 22.5436 31.2041 22.7715C31.2041 23.0039 31.2565 23.2158 31.3613 23.4072C31.4661 23.5986 31.6234 23.7513 31.833 23.8652C32.0472 23.9746 32.3092 24.0293 32.6191 24.0293C33.0065 24.0293 33.3483 23.9473 33.6445 23.7832C33.9408 23.6191 34.1755 23.4186 34.3486 23.1816C34.5264 22.9447 34.6221 22.7145 34.6357 22.4912L35.1758 23.0996C35.1439 23.291 35.0573 23.5029 34.916 23.7354C34.7747 23.9678 34.5856 24.1911 34.3486 24.4053C34.1162 24.6149 33.8382 24.7904 33.5146 24.9316C33.1956 25.0684 32.8356 25.1367 32.4346 25.1367C31.9333 25.1367 31.4935 25.0387 31.1152 24.8428C30.7415 24.6468 30.4499 24.3848 30.2402 24.0566C30.0352 23.724 29.9326 23.3525 29.9326 22.9424C29.9326 22.5459 30.0101 22.1973 30.165 21.8965C30.32 21.5911 30.5433 21.3382 30.835 21.1377C31.1266 20.9326 31.4775 20.7777 31.8877 20.6729C32.2979 20.568 32.7559 20.5156 33.2617 20.5156H34.7314ZM39.0312 19.1826V25H37.7666V17.6035H38.9629L39.0312 19.1826ZM38.7305 21.0215L38.2041 21.001C38.2087 20.4951 38.2839 20.028 38.4297 19.5996C38.5755 19.1667 38.7806 18.7907 39.0449 18.4717C39.3092 18.1527 39.6237 17.9066 39.9883 17.7334C40.3574 17.5557 40.7653 17.4668 41.2119 17.4668C41.5765 17.4668 41.9046 17.5169 42.1963 17.6172C42.488 17.7129 42.7363 17.8678 42.9414 18.082C43.151 18.2962 43.3105 18.5742 43.4199 18.916C43.5293 19.2533 43.584 19.6657 43.584 20.1533V25H42.3125V20.1396C42.3125 19.7523 42.2555 19.4424 42.1416 19.21C42.0277 18.973 41.8613 18.8021 41.6426 18.6973C41.4238 18.5879 41.1549 18.5332 40.8359 18.5332C40.5215 18.5332 40.2344 18.5993 39.9746 18.7314C39.7194 18.8636 39.4984 19.0459 39.3115 19.2783C39.1292 19.5107 38.9857 19.7773 38.8809 20.0781C38.7806 20.3743 38.7305 20.6888 38.7305 21.0215ZM50.2969 17.6035H51.4453V24.8428C51.4453 25.4945 51.3132 26.0505 51.0488 26.5107C50.7845 26.971 50.4154 27.3197 49.9414 27.5566C49.472 27.7982 48.9297 27.9189 48.3145 27.9189C48.0592 27.9189 47.7585 27.8779 47.4121 27.7959C47.0703 27.7184 46.7331 27.584 46.4004 27.3926C46.0723 27.2057 45.7965 26.9528 45.5732 26.6338L46.2363 25.8818C46.5462 26.2555 46.8698 26.5153 47.207 26.6611C47.5488 26.807 47.8861 26.8799 48.2188 26.8799C48.6198 26.8799 48.9661 26.8047 49.2578 26.6543C49.5495 26.5039 49.7751 26.2806 49.9346 25.9844C50.0986 25.6927 50.1807 25.3327 50.1807 24.9043V19.2305L50.2969 17.6035ZM45.2041 21.3838V21.2402C45.2041 20.6751 45.2702 20.1624 45.4023 19.7021C45.5391 19.2373 45.7327 18.8385 45.9834 18.5059C46.2386 18.1732 46.5462 17.918 46.9062 17.7402C47.2663 17.5579 47.6719 17.4668 48.123 17.4668C48.5879 17.4668 48.9935 17.5488 49.3398 17.7129C49.6908 17.8724 49.987 18.1071 50.2285 18.417C50.4746 18.7223 50.6683 19.0915 50.8096 19.5244C50.9508 19.9574 51.0488 20.4473 51.1035 20.9941V21.623C51.0534 22.1654 50.9554 22.653 50.8096 23.0859C50.6683 23.5189 50.4746 23.888 50.2285 24.1934C49.987 24.4987 49.6908 24.7334 49.3398 24.8975C48.9889 25.057 48.5788 25.1367 48.1094 25.1367C47.6673 25.1367 47.2663 25.0433 46.9062 24.8564C46.5508 24.6696 46.2454 24.4076 45.9902 24.0703C45.735 23.7331 45.5391 23.3366 45.4023 22.8809C45.2702 22.4206 45.2041 21.9215 45.2041 21.3838ZM46.4688 21.2402V21.3838C46.4688 21.7529 46.5052 22.0993 46.5781 22.4229C46.6556 22.7464 46.7718 23.0312 46.9268 23.2773C47.0863 23.5234 47.2891 23.7171 47.5352 23.8584C47.7812 23.9951 48.0752 24.0635 48.417 24.0635C48.8363 24.0635 49.1826 23.9746 49.4561 23.7969C49.7295 23.6191 49.946 23.3844 50.1055 23.0928C50.2695 22.8011 50.3971 22.4844 50.4883 22.1426V20.4951C50.4382 20.2445 50.3607 20.0029 50.2559 19.7705C50.1556 19.5335 50.0234 19.3239 49.8594 19.1416C49.6999 18.9548 49.5016 18.8066 49.2646 18.6973C49.0277 18.5879 48.7497 18.5332 48.4307 18.5332C48.0843 18.5332 47.7858 18.6061 47.5352 18.752C47.2891 18.8932 47.0863 19.0892 46.9268 19.3398C46.7718 19.5859 46.6556 19.873 46.5781 20.2012C46.5052 20.5247 46.4688 20.8711 46.4688 21.2402ZM56.4355 25.1367C55.9206 25.1367 55.4535 25.0501 55.0342 24.877C54.6195 24.6992 54.2617 24.4508 53.9609 24.1318C53.6647 23.8128 53.4368 23.4346 53.2773 22.9971C53.1178 22.5596 53.0381 22.0811 53.0381 21.5615V21.2744C53.0381 20.6729 53.127 20.1374 53.3047 19.668C53.4824 19.194 53.724 18.793 54.0293 18.4648C54.3346 18.1367 54.681 17.8883 55.0684 17.7197C55.4557 17.5511 55.8568 17.4668 56.2715 17.4668C56.8001 17.4668 57.2559 17.5579 57.6387 17.7402C58.026 17.9225 58.3428 18.1777 58.5889 18.5059C58.835 18.8294 59.0173 19.2122 59.1357 19.6543C59.2542 20.0918 59.3135 20.5703 59.3135 21.0898V21.6572H53.79V20.625H58.0488V20.5293C58.0306 20.2012 57.9622 19.8822 57.8438 19.5723C57.7298 19.2624 57.5475 19.0072 57.2969 18.8066C57.0462 18.6061 56.7044 18.5059 56.2715 18.5059C55.9844 18.5059 55.7201 18.5674 55.4785 18.6904C55.237 18.8089 55.0296 18.9867 54.8564 19.2236C54.6833 19.4606 54.5488 19.75 54.4531 20.0918C54.3574 20.4336 54.3096 20.8278 54.3096 21.2744V21.5615C54.3096 21.9124 54.3574 22.2428 54.4531 22.5527C54.5534 22.8581 54.6969 23.127 54.8838 23.3594C55.0752 23.5918 55.3053 23.7741 55.5742 23.9062C55.8477 24.0384 56.1576 24.1045 56.5039 24.1045C56.9505 24.1045 57.3288 24.0133 57.6387 23.8311C57.9486 23.6488 58.2197 23.4049 58.4521 23.0996L59.2178 23.708C59.0583 23.9495 58.8555 24.1797 58.6094 24.3984C58.3633 24.6172 58.0602 24.7949 57.7002 24.9316C57.3447 25.0684 56.9232 25.1367 56.4355 25.1367ZM62.0547 18.7656V25H60.79V17.6035H62.0205L62.0547 18.7656ZM64.3652 17.5625L64.3584 18.7383C64.2536 18.7155 64.1533 18.7018 64.0576 18.6973C63.9665 18.6882 63.8617 18.6836 63.7432 18.6836C63.4515 18.6836 63.194 18.7292 62.9707 18.8203C62.7474 18.9115 62.5583 19.0391 62.4033 19.2031C62.2484 19.3672 62.1253 19.5632 62.0342 19.791C61.9476 20.0143 61.8906 20.2604 61.8633 20.5293L61.5078 20.7344C61.5078 20.2878 61.5511 19.8685 61.6377 19.4766C61.7288 19.0846 61.8678 18.7383 62.0547 18.4375C62.2415 18.1322 62.4785 17.8952 62.7656 17.7266C63.0573 17.5534 63.4036 17.4668 63.8047 17.4668C63.8958 17.4668 64.0007 17.4782 64.1191 17.501C64.2376 17.5192 64.3197 17.5397 64.3652 17.5625Z" fill="white"/>
</svg>
